<svg width="441" height="294" viewBox="0 0 441 294" fill="none" xmlns="http://www.w3.org/2000/svg">
<mask id="mask0_256_114" style="mask-type:luminance" maskUnits="userSpaceOnUse" x="0" y="0" width="441" height="294">
<path d="M440.688 0.235352H0.470581V293.714H440.688V0.235352Z" fill="white"/>
</mask>
<g mask="url(#mask0_256_114)">
<path d="M-7.74695 272.877H443.036" stroke="white" stroke-opacity="0.35" stroke-miterlimit="10"/>
<path d="M-7.74695 242.355H288.935L288.96 333.627" stroke="white" stroke-opacity="0.35" stroke-miterlimit="10"/>
<path d="M-7.74695 212.42H136.057" stroke="white" stroke-opacity="0.35" stroke-miterlimit="10"/>
<path d="M-7.74695 181.898H136.057" stroke="white" stroke-opacity="0.35" stroke-miterlimit="10"/>
<path d="M-7.74695 151.377H136.351V154.018V333.627" stroke="white" stroke-opacity="0.35" stroke-miterlimit="10"/>
<path d="M-7.74695 120.855H106.71" stroke="white" stroke-opacity="0.35" stroke-miterlimit="10"/>
<path d="M105.829 151.67V333.627" stroke="white" stroke-opacity="0.35" stroke-miterlimit="10"/>
<path d="M75.3075 151.67V333.627" stroke="white" stroke-opacity="0.35" stroke-miterlimit="10"/>
<path d="M166.872 182.192V333.627" stroke="white" stroke-opacity="0.35" stroke-miterlimit="10"/>
<path d="M197.394 212.126V333.626" stroke="white" stroke-opacity="0.35" stroke-miterlimit="10"/>
<path d="M227.916 242.649V333.627" stroke="white" stroke-opacity="0.35" stroke-miterlimit="10"/>
<path d="M258.438 241.475V333.627" stroke="white" stroke-opacity="0.35" stroke-miterlimit="10"/>
<path d="M288.96 273.17V365.322" stroke="white" stroke-opacity="0.35" stroke-miterlimit="10"/>
<path d="M319.481 273.17V365.322" stroke="white" stroke-opacity="0.35" stroke-miterlimit="10"/>
<path d="M350.004 273.17V365.322" stroke="white" stroke-opacity="0.35" stroke-miterlimit="10"/>
<path d="M380.525 273.17V365.322" stroke="white" stroke-opacity="0.35" stroke-miterlimit="10"/>
<path d="M411.047 273.17V365.323" stroke="white" stroke-opacity="0.35" stroke-miterlimit="10"/>
<path d="M44.786 87.105V333.627" stroke="white" stroke-opacity="0.35" stroke-miterlimit="10"/>
<path d="M14.8524 57.7573V333.627" stroke="white" stroke-opacity="0.35" stroke-miterlimit="10"/>
</g>
<mask id="mask1_256_114" style="mask-type:luminance" maskUnits="userSpaceOnUse" x="0" y="0" width="441" height="294">
<path d="M440.688 0.235352H0.470581V293.714H440.688V0.235352Z" fill="white"/>
</mask>
<g mask="url(#mask1_256_114)">
<path d="M115.906 159.431H69.7323V113.258" stroke="white" stroke-opacity="0.35" stroke-miterlimit="10"/>
<path d="M81.7635 124.67V205.67" stroke="white" stroke-opacity="0.35" stroke-miterlimit="10"/>
<path d="M85.286 128.192V209.192" stroke="white" stroke-opacity="0.35" stroke-miterlimit="10"/>
<path d="M88.8066 131.714V212.714" stroke="white" stroke-opacity="0.35" stroke-miterlimit="10"/>
<path d="M92.3291 135.235V216.235" stroke="white" stroke-opacity="0.35" stroke-miterlimit="10"/>
<path d="M95.8505 138.757V219.757" stroke="white" stroke-opacity="0.35" stroke-miterlimit="10"/>
<path d="M99.3719 142.279V223.279" stroke="white" stroke-opacity="0.35" stroke-miterlimit="10"/>
</g>
<mask id="mask2_256_114" style="mask-type:luminance" maskUnits="userSpaceOnUse" x="0" y="0" width="441" height="294">
<path d="M440.688 0.235352H0.470581V293.714H440.688V0.235352Z" fill="white"/>
</mask>
<g mask="url(#mask2_256_114)">
<path d="M64.7106 221.126L54.4852 231.351" stroke="white" stroke-opacity="0.35" stroke-miterlimit="10"/>
<path d="M54.485 221.126L64.7104 231.351" stroke="white" stroke-opacity="0.35" stroke-miterlimit="10"/>
</g>
<mask id="mask3_256_114" style="mask-type:luminance" maskUnits="userSpaceOnUse" x="0" y="0" width="441" height="294">
<path d="M440.688 0.235352H0.470581V293.714H440.688V0.235352Z" fill="white"/>
</mask>
<g mask="url(#mask3_256_114)">
<path d="M142.735 192.757L136.479 202.149L129.434 192.757L123.179 202.149L116.322 192.757" stroke="white" stroke-opacity="0.35" stroke-miterlimit="10"/>
</g>
<mask id="mask4_256_114" style="mask-type:luminance" maskUnits="userSpaceOnUse" x="0" y="0" width="441" height="294">
<path d="M440.688 0.235352H0.470581V293.714H440.688V0.235352Z" fill="white"/>
</mask>
<g mask="url(#mask4_256_114)">
<path d="M144.318 282.71L119.133 257.525L113.4 247.1L128.144 232.357L153.329 257.542" stroke="white" stroke-opacity="0.35" stroke-miterlimit="10"/>
<path d="M113.591 247.18L138.722 272.312" stroke="white" stroke-opacity="0.35" stroke-miterlimit="10"/>
<path d="M153.328 257.542L159.061 267.966L144.317 282.71L138.585 272.285L153.328 257.542Z" stroke="white" stroke-opacity="0.35" stroke-miterlimit="10"/>
</g>
<path d="M95.897 258.553C96.5905 255.603 94.7608 252.649 91.8102 251.955C88.8596 251.262 85.9054 253.091 85.2119 256.042C84.5184 258.993 86.3481 261.947 89.2987 262.64C92.2493 263.334 95.2035 261.504 95.897 258.553Z" stroke="white" stroke-opacity="0.35" stroke-miterlimit="10"/>
<mask id="mask5_256_114" style="mask-type:luminance" maskUnits="userSpaceOnUse" x="0" y="0" width="441" height="294">
<path d="M440.688 0.235352H0.470581V293.714H440.688V0.235352Z" fill="white"/>
</mask>
<g mask="url(#mask5_256_114)">
<path d="M197.395 272.838L221.5 314.59H173.289L197.395 272.838Z" stroke="white" stroke-opacity="0.35" stroke-miterlimit="10"/>
</g>
<mask id="mask6_256_114" style="mask-type:luminance" maskUnits="userSpaceOnUse" x="0" y="0" width="441" height="294">
<path d="M440.688 0.235352H0.470581V293.714H440.688V0.235352Z" fill="white"/>
</mask>
<g mask="url(#mask6_256_114)">
<path d="M44.7101 257.399L66.2103 273.036L57.9976 298.336H31.4219L23.2098 273.036L44.7101 257.399Z" stroke="white" stroke-opacity="0.35" stroke-miterlimit="10"/>
<path d="M44.7098 279.406L66.2101 273.036" stroke="white" stroke-opacity="0.35" stroke-miterlimit="10"/>
</g>
<mask id="mask7_256_114" style="mask-type:luminance" maskUnits="userSpaceOnUse" x="0" y="0" width="441" height="294">
<path d="M440.688 0.235352H0.470581V293.714H440.688V0.235352Z" fill="white"/>
</mask>
<g mask="url(#mask7_256_114)">
<path d="M-3.4563 231.642L14.9841 189.817L38.0216 212.435L-3.4563 231.642Z" stroke="white" stroke-opacity="0.35" stroke-miterlimit="10"/>
<path d="M38.7524 211.701C41.2188 209.189 38.0611 202.089 31.6994 195.843C25.3377 189.597 18.1811 186.571 15.7146 189.083C13.2482 191.595 16.4059 198.695 22.7676 204.941C29.1293 211.186 36.2859 214.213 38.7524 211.701Z" stroke="white" stroke-opacity="0.35" stroke-miterlimit="10"/>
</g>
<mask id="mask8_256_114" style="mask-type:luminance" maskUnits="userSpaceOnUse" x="0" y="0" width="441" height="294">
<path d="M440.688 0.235352H0.470581V293.714H440.688V0.235352Z" fill="white"/>
</mask>
<g mask="url(#mask8_256_114)">
<path d="M247.582 207.724C262.143 207.724 273.946 219.528 273.946 234.089C273.946 248.649 262.143 260.453 247.582 260.453" stroke="white" stroke-opacity="0.35" stroke-miterlimit="10"/>
<path d="M258.439 257.909V181.018" stroke="white" stroke-opacity="0.35" stroke-miterlimit="10"/>
<path d="M261.96 256.148V179.257" stroke="white" stroke-opacity="0.35" stroke-miterlimit="10"/>
</g>
<mask id="mask9_256_114" style="mask-type:luminance" maskUnits="userSpaceOnUse" x="0" y="0" width="441" height="294">
<path d="M440.688 0.235352H0.470581V293.714H440.688V0.235352Z" fill="white"/>
</mask>
<g mask="url(#mask9_256_114)">
<path d="M21.1249 101.25L31.8346 111.626L23.5004 130.287L5.1116 139.207L-5.59801 128.83L-6.02649 101.679L21.1249 101.25Z" stroke="white" stroke-opacity="0.35" stroke-miterlimit="10"/>
<path d="M-6.02637 101.679L9.69057 116.907" stroke="white" stroke-opacity="0.35" stroke-miterlimit="10"/>
<path d="M4.68619 112.053L5.11523 139.206L32.2675 138.777L31.8384 111.624L4.68619 112.053Z" stroke="white" stroke-opacity="0.35" stroke-miterlimit="10"/>
</g>
<mask id="mask10_256_114" style="mask-type:luminance" maskUnits="userSpaceOnUse" x="0" y="0" width="441" height="294">
<path d="M440.688 0.235352H0.470581V293.714H440.688V0.235352Z" fill="white"/>
</mask>
<g mask="url(#mask10_256_114)">
<path d="M214.948 192.363C223.719 201.134 223.719 215.354 214.948 224.124C206.177 232.895 191.957 232.895 183.187 224.124" stroke="white" stroke-opacity="0.35" stroke-miterlimit="10"/>
<path d="M203.622 203.69C206.137 206.205 206.137 210.282 203.622 212.797C201.107 215.313 197.03 215.313 194.515 212.797" stroke="white" stroke-opacity="0.35" stroke-miterlimit="10"/>
<path d="M203.678 203.633C200.566 200.521 200.566 195.475 203.678 192.363C206.79 189.251 211.836 189.251 214.948 192.363C218.06 195.475 218.06 200.521 214.948 203.633C211.835 206.745 206.79 206.745 203.678 203.633Z" stroke="white" stroke-opacity="0.35" stroke-miterlimit="10"/>
<path d="M188.822 226.458C193.223 226.458 196.791 222.89 196.791 218.489C196.791 214.088 193.223 210.52 188.822 210.52C184.421 210.52 180.853 214.088 180.853 218.489C180.853 222.89 184.421 226.458 188.822 226.458Z" stroke="white" stroke-opacity="0.35" stroke-miterlimit="10"/>
</g>
<mask id="mask11_256_114" style="mask-type:luminance" maskUnits="userSpaceOnUse" x="0" y="0" width="441" height="294">
<path d="M440.688 0.235352H0.470581V293.714H440.688V0.235352Z" fill="white"/>
</mask>
<g mask="url(#mask11_256_114)">
<path d="M220.265 257.909C220.265 259.435 219.028 260.673 217.502 260.673C215.975 260.673 214.738 259.435 214.738 257.909C214.738 256.383 215.975 255.146 217.502 255.146C219.028 255.146 220.265 256.383 220.265 257.909Z" stroke="white" stroke-opacity="0.35" stroke-miterlimit="10"/>
<path d="M227.916 260.673C229.442 260.673 230.679 259.436 230.679 257.909C230.679 256.383 229.442 255.146 227.916 255.146C226.389 255.146 225.152 256.383 225.152 257.909C225.152 259.436 226.389 260.673 227.916 260.673Z" stroke="white" stroke-opacity="0.35" stroke-miterlimit="10"/>
<path d="M241.092 257.909C241.092 259.435 239.855 260.673 238.329 260.673C236.803 260.673 235.565 259.435 235.565 257.909C235.565 256.383 236.803 255.146 238.329 255.146C239.855 255.146 241.092 256.383 241.092 257.909Z" stroke="white" stroke-opacity="0.35" stroke-miterlimit="10"/>
</g>
</svg>
