<svg width="inherit" height="inherit" viewBox="0 0 513 525" fill="none" xmlns="http://www.w3.org/2000/svg">
<path d="M338.08 215.373C338.08 218.645 335.428 221.296 332.157 221.296C328.886 221.296 326.234 218.645 326.234 215.373C326.234 212.102 328.886 209.45 332.157 209.45C335.428 209.45 338.08 212.102 338.08 215.373Z" fill="#AE1731"/>
<path d="M225.542 221.296C228.814 221.296 231.465 218.645 231.465 215.373C231.465 212.102 228.814 209.45 225.542 209.45C222.271 209.45 219.619 212.102 219.619 215.373C219.619 218.645 222.271 221.296 225.542 221.296Z" fill="#AE1731"/>
<path fill-rule="evenodd" clip-rule="evenodd" d="M399.171 157.624C371.332 120.748 327.134 96.9134 277.369 96.9134C193.136 96.9134 124.852 165.198 124.852 249.431C124.852 333.664 193.136 401.948 277.369 401.948C361.602 401.948 429.887 333.664 429.887 249.431C429.887 215.624 418.887 184.385 400.271 159.1V157.624H399.171ZM277.369 393.064C356.695 393.064 421.002 328.757 421.002 249.431C421.002 218.543 411.252 189.932 394.662 166.509H363.253C346.092 166.509 330.049 170.536 318.43 178.734C309.255 185.207 302.67 194.381 300.424 206.749C308.204 199.321 319.538 194.643 332.156 194.643C345.091 194.643 356.675 199.558 364.466 207.312L364.52 207.157C366.968 209.602 369.039 212.328 370.657 215.269C363.887 227.577 349.194 236.104 332.157 236.104C319.074 236.104 307.372 231.075 299.58 223.167V274.603H308.465C313.372 274.603 317.349 278.581 317.349 283.488V295.334C317.349 297.773 316.366 299.983 314.774 301.589C315.847 302.119 316.853 302.7 317.779 303.321C328.723 310.659 332.382 320.05 335.181 327.234C335.763 328.727 336.308 330.126 336.873 331.39C342.453 343.87 355.968 346.824 370.656 337.96C369.677 344.855 362.431 362.414 341.28 362.414C314.841 362.414 295.746 357.166 281.058 335.822C280.319 334.748 279.662 333.383 279.115 331.821C278.566 333.383 277.905 334.748 277.161 335.822C262.388 357.166 243.182 362.414 216.59 362.414C195.316 362.414 188.028 344.855 187.043 337.96C201.817 346.824 215.41 343.87 221.022 331.39C221.591 330.126 222.139 328.727 222.724 327.234C225.54 320.05 229.22 310.659 240.228 303.321C241.096 302.742 242.036 302.197 243.034 301.696C241.378 300.082 240.35 297.828 240.35 295.334V283.488C240.35 278.581 244.328 274.603 249.235 274.603H258.119V223.167C250.328 231.075 238.626 236.104 225.543 236.104C208.506 236.104 193.812 227.577 187.043 215.269C188.661 212.328 190.732 209.602 193.179 207.157L193.233 207.31C201.024 199.558 212.608 194.643 225.542 194.643C238.162 194.643 249.496 199.322 257.276 206.751C255.031 194.382 248.445 185.207 239.27 178.734C227.651 170.536 211.608 166.509 194.447 166.509H160.076C143.486 189.932 133.736 218.543 133.736 249.431C133.736 328.757 198.043 393.064 277.369 393.064ZM267.004 216.484C267.004 196.11 258.129 181.166 244.392 171.474C230.838 161.911 212.824 157.624 194.447 157.624H166.902C193.249 125.957 232.955 105.798 277.369 105.798C321.784 105.798 361.49 125.957 387.836 157.624H363.253C344.876 157.624 326.862 161.911 313.308 171.474C299.571 181.166 290.696 196.11 290.696 216.484V292.064C290.696 298.222 285.766 302.738 278.85 302.738C271.934 302.738 267.004 298.222 267.004 292.064V216.484ZM258.119 283.488H249.235V295.334H258.119V283.488ZM299.58 283.488H308.465V295.334H299.58V283.488ZM316.739 224.212C311.74 222.103 307.59 219.015 304.524 215.373C307.59 211.731 311.74 208.643 316.739 206.534C315.243 209.138 314.388 212.156 314.388 215.373C314.388 218.591 315.243 221.609 316.739 224.212ZM347.575 224.213C349.071 221.609 349.926 218.591 349.926 215.373C349.926 212.156 349.071 209.138 347.575 206.535C352.574 208.644 356.724 211.732 359.79 215.374C356.724 219.016 352.574 222.104 347.575 224.213ZM332.157 226.035C338.045 226.035 342.818 221.262 342.818 215.373C342.818 209.485 338.045 204.712 332.157 204.712C326.269 204.712 321.496 209.485 321.496 215.373C321.496 221.262 326.269 226.035 332.157 226.035ZM197.909 215.373C200.975 219.015 205.125 222.103 210.124 224.212C208.628 221.609 207.773 218.591 207.773 215.373C207.773 212.156 208.628 209.138 210.124 206.534C205.125 208.643 200.975 211.731 197.909 215.373ZM253.175 215.374C250.109 219.016 245.959 222.104 240.96 224.213C242.456 221.609 243.311 218.591 243.311 215.373C243.311 212.156 242.456 209.138 240.96 206.535C245.96 208.644 250.109 211.732 253.175 215.374ZM236.204 215.373C236.204 221.262 231.43 226.035 225.542 226.035C219.654 226.035 214.881 221.262 214.881 215.373C214.881 209.485 219.654 204.712 225.542 204.712C231.43 204.712 236.204 209.485 236.204 215.373Z" fill="#AE1731"/>
<path d="M177.447 137.334L154.27 124.54L167 147.602C170.311 144.011 173.798 140.583 177.447 137.334Z" fill="#AE1731"/>
<path d="M277.216 72.5397L284.911 99.1932H269.522L277.216 72.5397Z" fill="#AE1731"/>
<path d="M274.56 424.307L266.866 397.653H282.255L274.56 424.307Z" fill="#AE1731"/>
<path d="M100.478 246.622L127.132 238.928V254.316L100.478 246.622Z" fill="#AE1731"/>
<path d="M452.245 249.278L425.592 256.972V241.584L452.245 249.278Z" fill="#AE1731"/>
<path d="M151.645 373.19L165.051 348.902L175.933 359.784L151.645 373.19Z" fill="#AE1731"/>
<path d="M402.26 126.331L388.853 150.619L377.972 139.737L402.26 126.331Z" fill="#AE1731"/>
<path d="M401.129 375.155L376.841 361.749L387.723 350.868L401.129 375.155Z" fill="#AE1731"/>
<path fill-rule="evenodd" clip-rule="evenodd" d="M308.144 92.905L275.736 -27.4697L241.661 99.0944C233.916 77.6286 223.878 62.6483 212.01 53.0772C198.84 42.4564 183.812 38.8172 168.201 39.9322L158.497 40.6254L165.376 47.5043C178.914 61.0416 185.302 74.4175 188.129 87.3266C190.306 97.262 190.405 107.04 189.866 116.684L82.5053 54.87L147.123 167.101C125.207 156.332 106.563 152.421 90.6915 154.122C73.869 155.924 60.6691 163.977 50.4188 175.805L44.0474 183.156H53.7758C72.9203 183.156 86.8956 188.097 98.0232 195.226C106.958 200.95 114.174 208.152 120.844 215.694L0.46875 248.103L131.852 283.475C107.79 291.424 91.2875 302.053 81.0157 314.79C70.3949 327.96 66.7556 342.988 67.8707 358.599L68.5638 368.303L75.4428 361.424C88.9801 347.886 102.356 341.498 115.265 338.671C125.049 336.527 134.681 336.398 144.182 336.91L81.9749 444.954L193.856 380.538C184.687 400.547 181.399 417.744 182.984 432.534C184.786 449.356 192.839 462.556 204.666 472.806L212.018 479.178V469.449C212.018 450.305 216.959 436.329 224.088 425.202C229.537 416.696 236.326 409.748 243.472 403.346L276.041 524.316L310.419 396.626C318.336 420.217 328.861 436.445 341.444 446.592C354.614 457.213 369.642 460.852 385.253 459.737L394.957 459.044L388.078 452.165C374.541 438.628 368.153 425.252 365.325 412.343C363.069 402.044 363.045 391.914 363.65 381.928L472.893 444.825L406.144 328.893C427.153 338.891 445.111 342.501 460.472 340.855C477.295 339.053 490.495 331 500.745 319.172L507.116 311.821H497.388C478.243 311.821 464.268 306.88 453.141 299.751C444.634 294.302 437.686 287.513 431.284 280.366L552.255 247.797L429.342 214.705C450.365 207.002 465.083 197.071 474.53 185.356C485.151 172.186 488.79 157.158 487.675 141.547L486.982 131.843L480.103 138.722C466.566 152.259 453.19 158.647 440.281 161.475C429.831 163.764 419.556 163.755 409.428 163.123L471.93 54.5668L355.54 121.579C367.216 98.6227 371.479 79.1989 369.717 62.753C367.914 45.9305 359.861 32.7306 348.034 22.4803L340.682 16.1089V25.8373C340.682 44.9819 335.741 58.9571 328.612 70.0847C322.888 79.0199 315.686 86.2355 308.144 92.905ZM401.401 326.554C402.139 326.93 402.873 327.299 403.603 327.66L398.941 330.345C398.545 330.934 398.145 331.521 397.742 332.105L448.728 420.66L360.204 369.692C359.597 370.113 358.986 370.53 358.373 370.942L356.958 373.399L355.381 373.267C355.289 374.37 355.198 375.483 355.112 376.605L354.936 376.911L355.082 376.995C354.204 388.583 353.79 401.204 356.646 414.244C359.29 426.313 364.697 438.6 374.842 450.833C364.843 449.977 355.489 446.505 347.021 439.676C335.751 430.587 325.662 415.235 317.969 391.133L311.328 393.252L311.426 392.885L309.155 392.273C306.79 392.816 304.404 393.302 301.998 393.73L276.041 490.141L250.1 393.787C247.591 393.347 245.105 392.843 242.642 392.278C242.6 392.313 242.559 392.348 242.518 392.384L240.656 392.885L240.896 393.778C232.371 401.156 223.551 409.569 216.607 420.409C209.942 430.813 205.077 443.324 203.601 459.148C197.135 451.473 192.976 442.403 191.818 431.587C190.304 417.458 193.86 399.867 204.962 377.965C200.884 375.736 196.922 373.32 193.087 370.729L106.14 420.789L155.78 334.572C154.157 332.326 152.595 330.032 151.098 327.693L149.889 326.997L149.129 328.319C137.951 327.52 125.849 327.257 113.364 329.992C101.295 332.635 89.0081 338.042 76.7751 348.187C77.6306 338.189 81.103 328.834 87.9315 320.367C96.7655 309.413 111.516 299.575 134.466 291.968C133.589 289.147 132.794 286.29 132.083 283.399C132.025 283.418 131.967 283.437 131.908 283.457L132.007 283.088C131.262 280.025 130.612 276.926 130.061 273.792L34.6434 248.103L130.004 222.429C130.558 219.24 131.214 216.087 131.968 212.973L131.9 212.717L130.386 213.125C122.784 204.265 114.119 194.986 102.816 187.745C92.4124 181.08 79.9009 176.215 64.0772 174.739C71.7524 168.274 80.8222 164.114 91.638 162.956C105.955 161.422 123.826 165.094 146.135 176.547C148.779 171.752 151.681 167.12 154.823 162.668L106.67 79.0351L190.235 127.148C192.932 125.232 195.696 123.404 198.523 121.668L198.45 121.626C199.272 110.327 199.579 98.0734 196.808 85.4255C194.164 73.3567 188.757 61.0696 178.612 48.8366C188.611 49.6922 197.965 53.1645 206.433 59.993C217.258 68.7229 226.993 83.23 234.561 105.719C239.617 104.252 244.784 103.048 250.046 102.122L275.736 6.70493L301.41 102.066C304.598 102.62 307.751 103.276 310.866 104.03L311.121 103.961L310.714 102.448C319.573 94.8451 328.852 86.1802 336.093 74.8772C342.758 64.474 347.623 51.9624 349.099 36.1387C355.565 43.8139 359.724 52.8837 360.883 63.6995C362.417 78.0166 358.745 95.8872 347.291 118.196C349.564 119.45 351.8 120.761 353.998 122.128L354.308 122.288L354.28 122.304C357.082 124.056 359.82 125.899 362.492 127.828L447.765 78.7319L398.311 164.625C399.939 167.011 401.499 169.448 402.987 171.932L404.015 172.524L404.498 171.684C416.205 172.585 428.979 173.046 442.182 170.154C454.251 167.51 466.538 162.103 478.771 151.958C477.915 161.957 474.443 171.311 467.614 179.779C458.525 191.049 443.173 201.138 419.071 208.831L420.544 213.448L420.212 214.684C420.755 217.048 421.241 219.434 421.669 221.84L518.08 247.797L421.726 273.739C421.285 276.247 420.781 278.734 420.216 281.197C420.252 281.238 420.287 281.28 420.322 281.321L420.824 283.182L421.716 282.942C429.094 291.468 437.508 300.288 448.348 307.232C458.751 313.897 471.263 318.762 487.087 320.238C479.411 326.703 470.342 330.862 459.526 332.021C445.396 333.535 427.806 329.979 405.904 318.876C404.478 321.484 402.976 324.044 401.401 326.554Z" fill="#AE1731"/>
</svg>
