<svg width="inherit" height="inherit" viewBox="0 0 188 212" fill="none" xmlns="http://www.w3.org/2000/svg">
<path id="Union" fill-rule="evenodd" clip-rule="evenodd" d="M94.3748 0.0722656C78.318 0.0722656 67.1895 30.3642 63.2285 51.9242C55.2395 49.0829 46.2303 46.7595 37.8654 45.4943C24.9468 43.5419 8.3616 43.2534 2.74834 52.9727C-5.26455 66.849 15.4721 91.7202 32.081 105.872C25.6258 111.371 19.1089 118.011 13.8303 124.623C5.67699 134.837 -2.86524 149.053 2.74802 158.774C6.36263 165.034 14.7743 167.366 24.818 167.366C37.1165 167.366 51.8623 163.871 63.2554 159.812C67.3623 182.234 78.6045 211.675 94.375 211.675C110.422 211.675 121.564 181.348 125.521 159.822C133.51 162.664 142.519 164.987 150.884 166.252C155.071 166.885 159.638 167.345 164.097 167.345C173.398 167.345 182.207 165.346 185.999 158.774C194.012 144.901 173.267 120.019 156.67 105.876C163.125 100.377 169.642 93.7365 174.921 87.1251C183.074 76.9095 191.616 62.6937 186.003 52.9727C177.95 39.025 146.247 44.5299 125.494 51.9353C121.387 29.514 110.145 0.0722656 94.3748 0.0722656ZM126.863 61.5387C127.092 63.9147 127.21 66.1032 127.21 68.0378C127.21 74.5125 125.666 80.1412 123.262 84.9813L123.264 84.9799C125.668 80.1402 127.211 74.5121 127.211 68.0383C127.211 66.104 127.093 63.9151 126.863 61.5387ZM107.973 102.345C108.205 102.177 108.437 102.006 108.671 101.832L108.681 101.826C108.445 102.002 108.21 102.175 107.976 102.345L107.973 102.345Z" fill="white" fill-opacity="0.2"/>
</svg>
