<svg width="44" height="51" viewBox="0 0 44 51" fill="none" xmlns="http://www.w3.org/2000/svg">
        <mask id="path-1-inside-1_1156_1821" fill="white">
          <path
            fill-rule="evenodd"
            clip-rule="evenodd"
            d="M41.3943 11.433C34.5834 10.0287 28.1201 7.33568 22.3878 3.50267C16.6578 7.32755 10.1957 10.0271 3.38398 11.4327L3.38398 19.2908C3.38398 31.5791 10.7774 42.7832 22.3892 48.0214C34.0009 42.7832 41.3943 31.5791 41.3943 19.2908V11.433ZM22.3892 50.8606C35.5051 45.4398 44.001 33.0267 44.001 19.2908V9.26485C36.1769 7.98177 28.7766 4.92823 22.4202 0.352901L22.3892 0.333008L22.3582 0.352901C16.0017 4.91829 8.60142 7.98177 0.777344 9.26485L0.777344 19.2908C0.777344 33.0267 9.27324 45.4398 22.3892 50.8606Z"
          />
        </mask>
        <path
          fill-rule="evenodd"
          clip-rule="evenodd"
          d="M41.3943 11.433C34.5834 10.0287 28.1201 7.33568 22.3878 3.50267C16.6578 7.32755 10.1957 10.0271 3.38398 11.4327L3.38398 19.2908C3.38398 31.5791 10.7774 42.7832 22.3892 48.0214C34.0009 42.7832 41.3943 31.5791 41.3943 19.2908V11.433ZM22.3892 50.8606C35.5051 45.4398 44.001 33.0267 44.001 19.2908V9.26485C36.1769 7.98177 28.7766 4.92823 22.4202 0.352901L22.3892 0.333008L22.3582 0.352901C16.0017 4.91829 8.60142 7.98177 0.777344 9.26485L0.777344 19.2908C0.777344 33.0267 9.27324 45.4398 22.3892 50.8606Z"
          fill="white"
        />
        <path
          d="M22.3878 3.50267L24.0553 1.00882L22.3892 -0.105263L20.7222 1.0075L22.3878 3.50267ZM41.3943 11.433H44.3943V8.98837L42.0001 8.49475L41.3943 11.433ZM3.38398 11.4327L2.77768 8.49464L0.383984 8.98861L0.383984 11.4327H3.38398ZM22.3892 48.0214L21.1555 50.756L22.3892 51.3125L23.6228 50.756L22.3892 48.0214ZM22.3892 50.8606L21.2433 53.6331L22.3892 54.1067L23.535 53.6331L22.3892 50.8606ZM44.001 9.26485H47.001V6.71675L44.4865 6.3044L44.001 9.26485ZM22.4202 0.352901L24.1728 -2.08194L24.1077 -2.1288L24.0401 -2.17211L22.4202 0.352901ZM22.3892 0.333008L24.0091 -2.19201L22.3892 -3.23129L20.7693 -2.19207L22.3892 0.333008ZM22.3582 0.352901L20.7383 -2.17217L20.672 -2.12967L20.6081 -2.08374L22.3582 0.352901ZM0.777344 9.26485L0.291854 6.3044L-2.22266 6.71675V9.26485H0.777344ZM20.7202 5.99651C26.7785 10.0475 33.6032 12.8897 40.7886 14.3712L42.0001 8.49475C35.5637 7.16774 29.4616 4.62386 24.0553 1.00882L20.7202 5.99651ZM3.99029 14.3708C11.1778 12.8876 18 10.0386 24.0533 5.99783L20.7222 1.0075C15.3156 4.61651 9.21362 7.16652 2.77768 8.49464L3.99029 14.3708ZM6.38398 19.2908V11.4327H0.383984L0.383984 19.2908H6.38398ZM23.6228 45.2868C13.0399 40.5127 6.38398 30.3496 6.38398 19.2908H0.383984C0.383984 32.8087 8.51499 45.0537 21.1555 50.756L23.6228 45.2868ZM38.3943 19.2908C38.3943 30.3496 31.7384 40.5127 21.1555 45.2868L23.6228 50.756C36.2633 45.0537 44.3943 32.8087 44.3943 19.2908H38.3943ZM38.3943 11.433V19.2908H44.3943V11.433H38.3943ZM41.001 19.2908C41.001 31.7608 33.2856 43.111 21.2433 48.0881L23.535 53.6331C37.7246 47.7686 47.001 34.2927 47.001 19.2908H41.001ZM41.001 9.26485V19.2908H47.001V9.26485H41.001ZM20.6676 2.78774C27.4056 7.63777 35.2409 10.8683 43.5155 12.2253L44.4865 6.3044C37.1129 5.0952 30.1475 2.2187 24.1728 -2.08194L20.6676 2.78774ZM20.7692 2.85802L20.8002 2.87792L24.0401 -2.17211L24.0091 -2.19201L20.7692 2.85802ZM23.978 2.87797L24.009 2.85808L20.7693 -2.19207L20.7383 -2.17217L23.978 2.87797ZM1.26283 12.2253C9.5397 10.868 17.3734 7.62669 24.1082 2.78954L20.6081 -2.08374C14.63 2.20988 7.66314 5.09557 0.291854 6.3044L1.26283 12.2253ZM3.77734 19.2908L3.77734 9.26485H-2.22266L-2.22266 19.2908H3.77734ZM23.535 48.0881C11.4927 43.111 3.77734 31.7608 3.77734 19.2908H-2.22266C-2.22266 34.2927 7.05373 47.7686 21.2433 53.6331L23.535 48.0881Z"
          fill="white"
          mask="url(#path-1-inside-1_1156_1821)"
        />
        <path d="M11.2051 14.6699H25.243L24.2346 17.7075H12.12L11.2051 14.6699Z" fill="white" />
        <path d="M12.1484 18.2471H15.3054L15.3054 29.0252L12.1484 30.2125L12.1484 18.2471Z" fill="white" />
        <path d="M14.8418 21.5469H19.5211L18.4253 24.5845H14.8418V21.5469Z" fill="white" />
        <path d="M21.4944 21.5742H32.9923L31.9727 24.6118H20.3887L21.4944 21.5742Z" fill="white" />
        <path d="M21.4944 32.168H32.9923L31.9727 35.2056H20.3887L21.4944 32.168Z" fill="white" />
        <path d="M20.4023 25.1514H24.6169L32.982 31.6275H28.487L20.4023 25.1514Z" fill="white" />
      </svg>
