<svg xmlns="http://www.w3.org/2000/svg" xml:space="preserve" width="682px" height="630px" version="1.1" style="shape-rendering:geometricPrecision; text-rendering:geometricPrecision; image-rendering:optimizeQuality; fill-rule:evenodd; clip-rule:evenodd"
viewBox="0 0 688.841 637.1">
 <g id="Layer_x0020_1">
  <metadata id="CorelCorpID_0Corel-Layer"/>
  <g id="_105553241711264">
   <g>
    <g>
     <polygon fill='#263138' fill-rule='nonzero' points="98.736,178.108 101.637,183.908 108.125,184.838 103.43,189.353 104.539,195.728 98.736,192.718 92.933,195.728 94.042,189.353 89.347,184.838 95.834,183.908 "/>
     <polygon fill='#F4F4F4' fill-rule='nonzero' points="679.453,451.154 682.354,456.954 688.842,457.884 684.147,462.399 685.255,468.774 679.453,465.764 673.65,468.774 674.758,462.399 670.064,457.884 676.551,456.954 "/>
     <polygon fill='#F4F4F4' fill-rule='nonzero' points="564.43,619.48 567.331,625.28 573.819,626.21 569.124,630.725 570.233,637.1 564.43,634.09 558.628,637.1 559.736,630.725 555.041,626.21 561.529,625.28 "/>
     <path fill='#263138' fill-rule='nonzero' d="M301.292 75.264l1.077 2.153 2.409 0.345c0.601,0.087 0.841,0.816 0.406,1.233l-1.743 1.677 0.411 2.365c0.103,0.592 -0.525,1.042 -1.063,0.763l-2.154 -1.117 -2.154 1.117c-0.537,0.279 -1.165,-0.171 -1.063,-0.763l0.411 -2.365 -1.742 -1.677c-0.435,-0.417 -0.195,-1.146 0.406,-1.233l2.408 -0.345 1.077 -2.153c0.269,-0.538 1.045,-0.538 1.314,0z"/>
     <path fill='#F4F4F4' fill-rule='nonzero' d="M4.936 591.936l1.078 2.154 2.407 0.346c0.601,0.086 0.842,0.814 0.407,1.232l-1.743 1.676 0.412 2.367c0.103,0.59 -0.526,1.041 -1.063,0.762l-2.155 -1.117 -2.154 1.117c-0.537,0.279 -1.165,-0.172 -1.063,-0.762l0.411 -2.367 -1.473 -1.417 0 -1.459c0.043,-0.014 0.089,-0.025 0.137,-0.032l2.408 -0.346 1.078 -2.154c0.268,-0.536 1.045,-0.536 1.313,0z"/>
     <path fill='#263138' fill-rule='nonzero' d="M53.343 52.51l1.076 2.153 2.409 0.345c0.601,0.087 0.841,0.815 0.406,1.234l-1.742 1.676 0.411 2.366c0.102,0.591 -0.526,1.041 -1.063,0.762l-2.154 -1.117 -2.154 1.117c-0.538,0.279 -1.166,-0.171 -1.063,-0.762l0.411 -2.366 -1.743 -1.676c-0.435,-0.419 -0.195,-1.147 0.406,-1.234l2.409 -0.345 1.076 -2.153c0.269,-0.537 1.046,-0.537 1.315,0z"/>
     <path fill='#263138' fill-rule='nonzero' d="M50.428 479.189c0,1.297 -1.066,2.349 -2.381,2.349 -1.315,0 -2.382,-1.052 -2.382,-2.349 0,-1.298 1.067,-2.351 2.382,-2.351 1.315,0 2.381,1.053 2.381,2.351z"/>
     <path fill='#263138' fill-rule='nonzero' d="M390.515 184.564c0,1.297 -1.066,2.349 -2.381,2.349 -1.316,0 -2.381,-1.052 -2.381,-2.349 0,-1.298 1.065,-2.35 2.381,-2.35 1.315,0 2.381,1.052 2.381,2.35z"/>
     <path fill='#F4F4F4' fill-rule='nonzero' d="M266.775 54.457c0,1.297 -1.066,2.349 -2.382,2.349 -1.315,0 -2.381,-1.052 -2.381,-2.349 0,-1.298 1.066,-2.35 2.381,-2.35 1.316,0 2.382,1.052 2.382,2.35z"/>
    </g>
    <g>
     <path fill='#EFEFEF' fill-rule='nonzero' d="M280.74 615.605c0,-7.183 -5.903,-13.007 -13.184,-13.007 -7.281,0 -13.183,5.824 -13.183,13.007 0,7.184 5.902,13.008 13.183,13.008 7.281,0 13.184,-5.824 13.184,-13.008z"/>
    </g>
    <path fill='#E6E6E6' fill-rule='nonzero' d="M262.989 608.015c-2.799,0 -5.4,0.885 -7.517,2.409 -0.701,1.593 -1.095,3.345 -1.095,5.186 0,7.188 5.903,12.994 13.188,12.994 2.458,0 4.772,-0.672 6.746,-1.84 -0.018,-0.018 -0.018,-0.018 0,-0.018 0.988,-1.806 1.543,-3.859 1.543,-6.055 0,-6.993 -5.759,-12.676 -12.865,-12.676z"/>
   </g>
   <g>
    <path fill='#3F7BFF' fill-rule='nonzero' d="M83.738 138.504c-27.497,72.25 -3.766,169.771 38.715,246.066 109.374,198.097 375.783,86.084 371.19,-3.873 6.253,-85.838 -71.974,-111.324 -98.516,-159.449 -148.604,-271.583 -289.269,-143.653 -311.389,-82.744z"/>
    <path fill='#3f7bff' fill-rule='nonzero' fill-opacity='0.9' d="M83.738 138.504c-27.497,72.25 -3.766,169.771 38.715,246.066 109.374,198.097 375.783,86.084 371.19,-3.873 6.253,-85.838 -71.974,-111.324 -98.516,-159.449 -148.604,-271.583 -289.269,-143.653 -311.389,-82.744z"/>
   </g>
   <g>
    <path fill='#3F7BFF' fill-rule='nonzero' d="M160.865 389.479l-109.19 0 0 -48.639 109.19 -128.06 52.24 0 0 130.818 27.077 0 0 45.881 -27.077 0 0 39.782 -52.24 0 0 -39.782zm0 -45.881l0 0 0 -66.985 -57.696 66.985 57.696 0z"/>
    <path fill='#3F7BFF' fill-rule='nonzero' d="M258.871 321.965c0,-40.459 7.379,-68.77 22.146,-84.937 14.765,-16.165 37.253,-24.248 67.472,-24.248 14.517,0 26.437,1.769 35.759,5.3 9.319,3.535 16.923,8.131 22.809,13.794 5.885,5.662 10.521,11.615 13.905,17.858 3.386,6.243 6.108,13.527 8.168,21.853 4.021,15.874 6.033,32.426 6.033,49.655 0,38.62 -6.622,66.886 -19.866,84.792 -13.245,17.908 -36.054,26.859 -68.427,26.859 -18.15,0 -32.817,-2.857 -44,-8.567 -11.184,-5.709 -20.359,-14.082 -27.518,-25.117 -5.202,-7.84 -9.248,-18.561 -12.14,-32.159 -2.896,-13.6 -4.341,-28.627 -4.341,-45.083zm59.451 0.144l0 0c0,27.103 2.428,45.616 7.283,55.538 4.857,9.922 11.896,14.881 21.117,14.881 6.082,0 11.355,-2.104 15.818,-6.316 4.465,-4.211 7.75,-10.863 9.862,-19.963 2.109,-9.098 3.163,-23.279 3.163,-42.542 0,-28.263 -2.428,-47.258 -7.283,-56.987 -4.858,-9.729 -12.141,-14.593 -21.854,-14.593 -9.909,0 -17.07,4.963 -21.486,14.883 -4.413,9.924 -6.62,28.29 -6.62,55.099z"/>
    <path fill='#3F7BFF' fill-rule='nonzero' d="M562.895 389.479l-109.19 0 0 -48.639 109.19 -128.06 52.241 0 0 130.818 27.076 0 0 45.881 -27.076 0 0 39.782 -52.241 0 0 -39.782zm0 -45.881l0 0 0 -66.985 -57.696 66.985 57.696 0z"/>
   </g>
   <g>
    <g>
     <path fill='#3f7bff' fill-rule='nonzero' fill-opacity='0.3' d="M256.449 138.047c0,1.824 -1.499,3.302 -3.348,3.302 -1.848,0 -3.346,-1.478 -3.346,-3.302 0,-1.823 1.498,-3.302 3.346,-3.302 1.849,0 3.348,1.479 3.348,3.302z"/>
     <path fill='#3f7bff' fill-rule='nonzero' fill-opacity='0.3' d="M29.181 262.873c0,1.294 -1.063,2.342 -2.374,2.342 -1.311,0 -2.374,-1.048 -2.374,-2.342 0,-1.294 1.063,-2.342 2.374,-2.342 1.311,0 2.374,1.048 2.374,2.342z"/>
     <path fill='#3f7bff' fill-rule='nonzero' fill-opacity='0.3' d="M421.513 603.136c0,1.851 -1.521,3.351 -3.397,3.351 -1.876,0 -3.397,-1.5 -3.397,-3.351 0,-1.851 1.521,-3.353 3.397,-3.353 1.876,0 3.397,1.502 3.397,3.353z"/>
     <path fill='#3f7bff' fill-rule='nonzero' fill-opacity='0.3' d="M502.029 468.001c0,1.294 -1.062,2.342 -2.373,2.342 -1.311,0 -2.374,-1.048 -2.374,-2.342 0,-1.293 1.063,-2.341 2.374,-2.341 1.311,0 2.373,1.048 2.373,2.341z"/>
     <path fill='#3f7bff' fill-rule='nonzero' fill-opacity='0.3' d="M656.967 49.532c0,1.293 -1.062,2.342 -2.373,2.342 -1.312,0 -2.374,-1.049 -2.374,-2.342 0,-1.294 1.062,-2.343 2.374,-2.343 1.311,0 2.373,1.049 2.373,2.343z"/>
     <path fill='#3f7bff' fill-rule='nonzero' fill-opacity='0.3' d="M205.854 2.343c0,1.293 -1.063,2.342 -2.374,2.342 -1.311,0 -2.374,-1.049 -2.374,-2.342 0,-1.294 1.063,-2.343 2.374,-2.343 1.311,0 2.374,1.049 2.374,2.343z"/>
     <path fill='#3f7bff' fill-rule='nonzero' fill-opacity='0.3' d="M396.521 122.689c0,1.294 -1.063,2.342 -2.373,2.342 -1.311,0 -2.375,-1.048 -2.375,-2.342 0,-1.294 1.064,-2.342 2.375,-2.342 1.31,0 2.373,1.048 2.373,2.342z"/>
    </g>
    <g>
     <g>
      <path fill='#3F7BFF' fill-rule='nonzero' d="M188.61 86.252c0,21.421 -17.601,38.788 -39.313,38.788 -21.711,0 -39.312,-17.367 -39.312,-38.788 0,-21.422 17.601,-38.788 39.312,-38.788 21.712,0 39.313,17.366 39.313,38.788z"/>
      <path fill='#3f7bff' fill-rule='nonzero' fill-opacity='0.7' d="M188.61 86.252c0,21.421 -17.601,38.788 -39.313,38.788 -21.711,0 -39.312,-17.367 -39.312,-38.788 0,-21.422 17.601,-38.788 39.312,-38.788 21.712,0 39.313,17.366 39.313,38.788z"/>
     </g>
     <path fill='#3F7BFF' fill-rule='nonzero' fill-opacity='0.2' d="M135.749 56.987c-5.51,0 -10.74,1.124 -15.504,3.134 -6.369,6.892 -10.255,16.07 -10.255,26.133 0,21.416 17.596,38.777 39.302,38.777 5.529,0 10.797,-1.124 15.579,-3.151 0,0 0,0 0,-0.018 6.332,-6.894 10.199,-16.035 10.199,-26.079 0,-21.435 -17.596,-38.796 -39.321,-38.796z"/>
     <path fill='#3F7BFF' fill-rule='nonzero' fill-opacity='0.2' d="M131.841 67.243c0,1.959 -1.61,3.546 -3.594,3.546 -1.985,0 -3.594,-1.587 -3.594,-3.546 0,-1.958 1.609,-3.546 3.594,-3.546 1.984,0 3.594,1.588 3.594,3.546z"/>
     <path fill='#3F7BFF' fill-rule='nonzero' fill-opacity='0.2' d="M174.113 63.697c0,1.959 -1.609,3.546 -3.594,3.546 -1.984,0 -3.594,-1.587 -3.594,-3.546 0,-1.958 1.61,-3.545 3.594,-3.545 1.985,0 3.594,1.587 3.594,3.545z"/>
     <path fill='#3F7BFF' fill-rule='nonzero' fill-opacity='0.2' d="M166.925 88.979c0,3.204 -2.632,5.802 -5.88,5.802 -3.248,0 -5.881,-2.598 -5.881,-5.802 0,-3.205 2.633,-5.803 5.881,-5.803 3.248,0 5.88,2.598 5.88,5.803z"/>
     <path fill='#3F7BFF' fill-rule='nonzero' fill-opacity='0.2' d="M148.236 105.523c0,4.283 -3.519,7.756 -7.861,7.756 -4.341,0 -7.86,-3.473 -7.86,-7.756 0,-4.284 3.519,-7.756 7.86,-7.756 4.342,0 7.861,3.472 7.861,7.756z"/>
    </g>
    <g>
     <g>
      <path fill='#3F7BFF' fill-rule='nonzero' d="M616.148 546.336c0,18.798 -15.445,34.036 -34.496,34.036 -19.052,0 -34.497,-15.238 -34.497,-34.036 0,-18.797 15.445,-34.035 34.497,-34.035 19.051,0 34.496,15.238 34.496,34.035z"/>
      <path fill='white' fill-rule='nonzero' fill-opacity='0.3' d="M616.148 546.336c0,18.798 -15.445,34.036 -34.496,34.036 -19.052,0 -34.497,-15.238 -34.497,-34.036 0,-18.797 15.445,-34.035 34.497,-34.035 19.051,0 34.496,15.238 34.496,34.035z"/>
     </g>
     <path fill='#3f7bff' fill-rule='nonzero' fill-opacity='0.4' d="M603.426 519.941c-3.137,-0.939 -6.481,-1.437 -9.936,-1.437 -19.054,0 -34.502,15.242 -34.502,34.04 0,10.653 4.95,20.144 12.721,26.392 3.138,0.94 6.482,1.438 9.937,1.438 19.054,0 34.501,-15.242 34.501,-34.041 0,-10.653 -4.95,-20.163 -12.721,-26.392z"/>
     <path fill='#3F7BFF' fill-rule='nonzero' d="M548.697 556.424c-36.843,17.106 -9.359,30.289 42.545,11.884 48.058,-17.042 66.329,-38.539 23.418,-31.877 2.215,9.044 -57.976,32.184 -65.963,19.993z"/>
    </g>
   </g>
   <g>
    <path fill='black' fill-rule='nonzero' fill-opacity='0.2' d="M603.003 212.775c-48.247,32.167 -110.706,74.584 -127.949,176.696l-3.678 0c16.776,-100.873 76.956,-144.406 125.222,-176.696l6.405 0z"/>
    <g>
     <path fill='#3F7BFF' fill-rule='nonzero' d="M353.459 532.205c-30.448,0.002 -60.662,-13.565 -75.334,-35.737 -9.066,-13.7 -19.594,-42.399 11.762,-80.687l2.791 2.227c-22.181,27.083 -26.282,54.261 -11.548,76.524 17.932,27.101 60.28,40.728 96.406,31.031 37.012,-9.937 59.484,-41.703 61.653,-87.15 7.419,-155.446 91.121,-203.329 152.237,-238.293 37.971,-21.722 65.405,-37.417 59.375,-70.525 -0.836,-4.594 -2.693,-7.767 -5.676,-9.704 -7.81,-5.078 -23.061,-1.568 -40.719,2.493 -34.639,7.961 -82.08,18.866 -110.342,-28.562l3.093 -1.795c26.925,45.185 71.012,35.052 106.435,26.908 18.463,-4.242 34.408,-7.908 43.507,-2.002 3.848,2.5 6.214,6.436 7.234,12.036 6.475,35.551 -23.348,52.613 -61.107,74.215 -60.402,34.554 -143.125,81.879 -150.453,235.395 -2.247,47.083 -25.681,80.032 -64.295,90.4 -8.138,2.185 -16.59,3.224 -25.019,3.226z"/>
     <path fill='white' fill-rule='nonzero' fill-opacity='0.2' d="M353.459 532.205c-30.448,0.002 -60.662,-13.565 -75.334,-35.737 -9.066,-13.7 -19.594,-42.399 11.762,-80.687l2.791 2.227c-22.181,27.083 -26.282,54.261 -11.548,76.524 17.932,27.101 60.28,40.728 96.406,31.031 37.012,-9.937 59.484,-41.703 61.653,-87.15 7.419,-155.446 91.121,-203.329 152.237,-238.293 37.971,-21.722 65.405,-37.417 59.375,-70.525 -0.836,-4.594 -2.693,-7.767 -5.676,-9.704 -7.81,-5.078 -23.061,-1.568 -40.719,2.493 -34.639,7.961 -82.08,18.866 -110.342,-28.562l3.093 -1.795c26.925,45.185 71.012,35.052 106.435,26.908 18.463,-4.242 34.408,-7.908 43.507,-2.002 3.848,2.5 6.214,6.436 7.234,12.036 6.475,35.551 -23.348,52.613 -61.107,74.215 -60.402,34.554 -143.125,81.879 -150.453,235.395 -2.247,47.083 -25.681,80.032 -64.295,90.4 -8.138,2.185 -16.59,3.224 -25.019,3.226z"/>
    </g>
    <g>
     <g>
      <path fill='#3F7BFF' fill-rule='nonzero' d="M457.059 51.887c12.3,-0.22 24.37,3.777 24.37,3.777 0,0 19.673,33.23 22.073,40.836 -0.826,7.507 -13.664,19.813 -13.664,19.813l-32.779 -64.426z"/>
      <path fill='white' fill-rule='nonzero' fill-opacity='0.3' d="M457.059 51.887c12.3,-0.22 24.37,3.777 24.37,3.777 0,0 19.673,33.23 22.073,40.836 -0.826,7.507 -13.664,19.813 -13.664,19.813l-32.779 -64.426z"/>
     </g>
     <g>
      <g>
       <path fill='#3F7BFF' fill-rule='nonzero' d="M515.519 213.311c-7.42,-9.291 -14.708,-18.755 -20.74,-29.007 -1.508,-2.562 -2.936,-5.17 -4.287,-7.816 -0.768,-1.504 -1.511,-3.019 -2.232,-4.545 -0.63,-1.332 -2.021,-3.297 -2.16,-4.751 -2.155,-22.434 5.628,-38.948 -1.844,-56.955l-29.554 11.396c0,0 2.513,32.082 8.251,51.274 3.56,11.907 11.617,22.216 19.384,31.755 2.429,2.984 4.77,6.037 7.195,9.025 2.295,2.829 4.865,5.425 7.167,8.239 3.493,4.272 4.655,8.35 2,13.386 -0.142,0.27 -0.291,0.537 -0.442,0.802 -0.755,1.312 2.774,2.799 4.989,0.036 3.664,-4.569 3.088,-4.288 6.212,-8.183 1.897,-2.366 4.075,-4.921 5.955,-7.14 1.835,-2.165 1.877,-5.299 0.106,-7.516z"/>
       <path fill='#3f7bff' fill-rule='nonzero' fill-opacity='0.7' d="M515.519 213.311c-7.42,-9.291 -14.708,-18.755 -20.74,-29.007 -1.508,-2.562 -2.936,-5.17 -4.287,-7.816 -0.768,-1.504 -1.511,-3.019 -2.232,-4.545 -0.63,-1.332 -2.021,-3.297 -2.16,-4.751 -2.155,-22.434 5.628,-38.948 -1.844,-56.955l-29.554 11.396c0,0 2.513,32.082 8.251,51.274 3.56,11.907 11.617,22.216 19.384,31.755 2.429,2.984 4.77,6.037 7.195,9.025 2.295,2.829 4.865,5.425 7.167,8.239 3.493,4.272 4.655,8.35 2,13.386 -0.142,0.27 -0.291,0.537 -0.442,0.802 -0.755,1.312 2.774,2.799 4.989,0.036 3.664,-4.569 3.088,-4.288 6.212,-8.183 1.897,-2.366 4.075,-4.921 5.955,-7.14 1.835,-2.165 1.877,-5.299 0.106,-7.516z"/>
      </g>
      <path fill='#3f7bff' fill-rule='nonzero' fill-opacity='0.3' d="M508.292 204.08c-3.957,4.718 -12,10.837 -15.546,13.318 0.771,0.848 1.537,1.714 2.303,2.579 7.299,-4.703 13.069,-10.807 15.257,-13.285 -0.674,-0.859 -1.344,-1.736 -2.014,-2.612z"/>
      <path fill='#3f7bff' fill-rule='nonzero' fill-opacity='0.3' d="M515.511 213.315c-0.068,-0.091 -0.14,-0.166 -0.207,-0.257 -1.245,1.28 -2.123,3.32 -2.27,5.611 -0.119,1.582 0.151,3.031 0.677,4.162 0.597,-0.685 1.155,-1.36 1.704,-2.002 1.841,-2.167 1.866,-5.297 0.096,-7.514z"/>
     </g>
     <g>
      <g>
       <path fill='#3F7BFF' fill-rule='nonzero' d="M450.034 73.134c-3.092,4.436 -6.737,8.809 -11.44,12.735 -2.335,1.974 -4.998,3.76 -7.925,5.276 -1.477,0.743 -3.028,1.387 -4.635,1.919l-1.211 0.384 -0.391 0.121c-0.282,0.085 -0.568,0.162 -0.854,0.23 -0.543,0.119 -1.086,0.202 -1.567,0.241 -1.945,0.145 -3.351,-0.128 -4.512,-0.413 -2.291,-0.616 -3.821,-1.44 -5.27,-2.238 -1.427,-0.811 -2.678,-1.644 -3.864,-2.503 -2.336,-1.753 -4.449,-3.515 -6.42,-5.396 -3.966,-3.735 -7.482,-7.61 -10.748,-11.924 -1.488,-1.967 -1.079,-4.752 0.913,-6.22 1.539,-1.134 3.57,-1.152 5.102,-0.197l0.135 0.086c4.235,2.653 8.507,5.449 12.676,7.953 2.106,1.225 4.161,2.457 6.183,3.416 0.993,0.495 1.969,0.947 2.847,1.268 0.856,0.328 1.71,0.517 1.933,0.473 0.094,-0.007 -0.018,-0.131 -0.679,-0.108 -0.16,0.008 -0.385,0.029 -0.615,0.079 -0.132,0.025 -0.263,0.058 -0.391,0.099 -0.123,0.04 0.052,-0.034 0.062,-0.044l0.594 -0.3c0.79,-0.397 1.547,-0.893 2.313,-1.396 1.537,-1.025 2.999,-2.327 4.491,-3.754 2.953,-2.894 5.795,-6.497 8.794,-10.243l0.041 -0.051c3.073,-3.838 8.717,-4.491 12.606,-1.46 3.726,2.904 4.473,8.159 1.832,11.967z"/>
       <path fill='#3f7bff' fill-rule='nonzero' fill-opacity='0.7' d="M450.034 73.134c-3.092,4.436 -6.737,8.809 -11.44,12.735 -2.335,1.974 -4.998,3.76 -7.925,5.276 -1.477,0.743 -3.028,1.387 -4.635,1.919l-1.211 0.384 -0.391 0.121c-0.282,0.085 -0.568,0.162 -0.854,0.23 -0.543,0.119 -1.086,0.202 -1.567,0.241 -1.945,0.145 -3.351,-0.128 -4.512,-0.413 -2.291,-0.616 -3.821,-1.44 -5.27,-2.238 -1.427,-0.811 -2.678,-1.644 -3.864,-2.503 -2.336,-1.753 -4.449,-3.515 -6.42,-5.396 -3.966,-3.735 -7.482,-7.61 -10.748,-11.924 -1.488,-1.967 -1.079,-4.752 0.913,-6.22 1.539,-1.134 3.57,-1.152 5.102,-0.197l0.135 0.086c4.235,2.653 8.507,5.449 12.676,7.953 2.106,1.225 4.161,2.457 6.183,3.416 0.993,0.495 1.969,0.947 2.847,1.268 0.856,0.328 1.71,0.517 1.933,0.473 0.094,-0.007 -0.018,-0.131 -0.679,-0.108 -0.16,0.008 -0.385,0.029 -0.615,0.079 -0.132,0.025 -0.263,0.058 -0.391,0.099 -0.123,0.04 0.052,-0.034 0.062,-0.044l0.594 -0.3c0.79,-0.397 1.547,-0.893 2.313,-1.396 1.537,-1.025 2.999,-2.327 4.491,-3.754 2.953,-2.894 5.795,-6.497 8.794,-10.243l0.041 -0.051c3.073,-3.838 8.717,-4.491 12.606,-1.46 3.726,2.904 4.473,8.159 1.832,11.967z"/>
      </g>
      <g>
       <path fill='#3F7BFF' fill-rule='nonzero' d="M384.44 61.565l2.102 3.481c0,0 1.607,4.631 4.82,5.487l8.709 -2.783 -0.435 -0.723c0.004,0.001 0.008,0.002 0.012,0.003 -1.117,-1.676 -0.996,-4.909 -0.604,-7.598 0.392,-2.689 -1.022,-2.785 -2.066,-2.116 -0.604,0.386 -1.03,1.613 -1.52,2.936 -0.428,-0.583 -0.888,-1.144 -1.406,-1.654l-2.661 -2.615c-1.148,-1.127 -2.988,-1.179 -4.199,-0.117l-2.155 1.892c-1.1,0.963 -1.35,2.562 -0.597,3.807z"/>
       <path fill='#3f7bff' fill-rule='nonzero' fill-opacity='0.7' d="M384.44 61.565l2.102 3.481c0,0 1.607,4.631 4.82,5.487l8.709 -2.783 -0.435 -0.723c0.004,0.001 0.008,0.002 0.012,0.003 -1.117,-1.676 -0.996,-4.909 -0.604,-7.598 0.392,-2.689 -1.022,-2.785 -2.066,-2.116 -0.604,0.386 -1.03,1.613 -1.52,2.936 -0.428,-0.583 -0.888,-1.144 -1.406,-1.654l-2.661 -2.615c-1.148,-1.127 -2.988,-1.179 -4.199,-0.117l-2.155 1.892c-1.1,0.963 -1.35,2.562 -0.597,3.807z"/>
      </g>
     </g>
     <g>
      <path fill='#3F7BFF' fill-rule='nonzero' d="M465.88 48.834c-8.341,1.997 -19.802,6.693 -27.541,11.45 -2.743,1.687 -4.111,4.886 -3.466,8.01 3.453,16.711 11.329,39.098 19.833,53.338l39.674 -16.193c0.273,-6.905 -9.359,-29.245 -19.169,-50.839 -1.764,-3.882 -5.14,-6.769 -9.331,-5.766z"/>
      <path fill='#3f7bff' fill-rule='nonzero' fill-opacity='0.8' d="M465.88 48.834c-8.341,1.997 -19.802,6.693 -27.541,11.45 -2.743,1.687 -4.111,4.886 -3.466,8.01 3.453,16.711 11.329,39.098 19.833,53.338l39.674 -16.193c0.273,-6.905 -9.359,-29.245 -19.169,-50.839 -1.764,-3.882 -5.14,-6.769 -9.331,-5.766z"/>
     </g>
     <path fill='#3f7bff' fill-rule='nonzero' fill-opacity='0.3' d="M481.35 68.289l-7.872 -2.605c1.761,4.544 8.133,10.305 12.612,13.689 -1.476,-3.551 -3.076,-7.263 -4.74,-11.084z"/>
     <g>
      <path fill='#3F7BFF' fill-rule='nonzero' d="M463.266 31.3c-3.275,-6.161 -10.36,-9.264 -18.87,-8.563 -7.173,0.591 -13.534,7.818 -12.78,11.722 0.754,3.905 6.791,5.559 7.884,6.916l-4.975 3.558c-2.476,1.772 -2.961,5.217 -1.068,7.59 2.093,2.623 4.85,5.363 6.455,7.298 13.75,-0.352 23.921,-5.527 27.586,-10.507 -1.318,-6.337 -0.975,-11.885 -4.232,-18.014z"/>
      <path fill='#3f7bff' fill-rule='nonzero' fill-opacity='0.8' d="M463.266 31.3c-3.275,-6.161 -10.36,-9.264 -18.87,-8.563 -7.173,0.591 -13.534,7.818 -12.78,11.722 0.754,3.905 6.791,5.559 7.884,6.916l-4.975 3.558c-2.476,1.772 -2.961,5.217 -1.068,7.59 2.093,2.623 4.85,5.363 6.455,7.298 13.75,-0.352 23.921,-5.527 27.586,-10.507 -1.318,-6.337 -0.975,-11.885 -4.232,-18.014z"/>
     </g>
     <path fill='#263138' fill-rule='nonzero' d="M456.525 35.117c2.732,6.896 -0.72,14.672 -7.709,17.367 -6.989,2.696 -14.87,-0.711 -17.602,-7.606 -2.731,-6.897 0.72,-14.672 7.71,-17.367 6.989,-2.696 14.869,0.71 17.601,7.606z"/>
     <g>
      <g>
       <path fill='#3F7BFF' fill-rule='nonzero' d="M573.023 194.658c-0.2,-5.821 -0.455,-5.239 -0.626,-10.204 -0.103,-3.015 -0.116,-6.354 -0.137,-9.246 -0.019,-2.823 -2.042,-5.239 -4.845,-5.801 -2.378,-0.476 -4.762,-0.929 -7.135,-1.428 -3.097,-0.651 -6.158,-1.353 -9.199,-2.224 -2.359,-0.675 -4.696,-1.422 -7.007,-2.243 -2.474,-0.881 -4.918,-1.845 -7.336,-2.868 -2.828,-1.197 -5.621,-2.471 -8.395,-3.785 -3.095,-1.465 -6.167,-2.98 -9.227,-4.515 -11.809,-19.288 -12.063,-31.997 -24.736,-46.905l-27.202 12.141c0,0 19.987,34.989 33.598,49.824 7.835,8.539 20.129,12.387 31.09,15.18 7.908,2.015 15.929,3.558 23.96,5.012 3.122,0.565 6.516,0.785 9.201,2.623 2.115,1.448 3.209,3.71 3.835,6.111 0.128,0.491 0.236,0.987 0.331,1.485 0.285,1.482 3.952,0.364 3.83,-3.157z"/>
       <path fill='#3f7bff' fill-rule='nonzero' fill-opacity='0.8' d="M573.023 194.658c-0.2,-5.821 -0.455,-5.239 -0.626,-10.204 -0.103,-3.015 -0.116,-6.354 -0.137,-9.246 -0.019,-2.823 -2.042,-5.239 -4.845,-5.801 -2.378,-0.476 -4.762,-0.929 -7.135,-1.428 -3.097,-0.651 -6.158,-1.353 -9.199,-2.224 -2.359,-0.675 -4.696,-1.422 -7.007,-2.243 -2.474,-0.881 -4.918,-1.845 -7.336,-2.868 -2.828,-1.197 -5.621,-2.471 -8.395,-3.785 -3.095,-1.465 -6.167,-2.98 -9.227,-4.515 -11.809,-19.288 -12.063,-31.997 -24.736,-46.905l-27.202 12.141c0,0 19.987,34.989 33.598,49.824 7.835,8.539 20.129,12.387 31.09,15.18 7.908,2.015 15.929,3.558 23.96,5.012 3.122,0.565 6.516,0.785 9.201,2.623 2.115,1.448 3.209,3.71 3.835,6.111 0.128,0.491 0.236,0.987 0.331,1.485 0.285,1.482 3.952,0.364 3.83,-3.157z"/>
      </g>
      <path fill='#3f7bff' fill-rule='nonzero' fill-opacity='0.3' d="M559.229 167.757c-1.071,-0.232 -2.158,-0.468 -3.242,-0.721 0.085,6.112 -2.821,16.671 -3.888,19.87 1.132,0.211 2.281,0.428 3.413,0.64 3.149,-8.402 3.644,-17.296 3.717,-19.789z"/>
      <path fill='#3f7bff' fill-rule='nonzero' fill-opacity='0.3' d="M572.256 175.209c-0.02,-2.831 -2.035,-5.241 -4.835,-5.808 -0.563,-0.114 -1.144,-0.233 -1.712,-0.33 0.118,1.664 1.167,3.595 2.92,5.129 1.15,1.024 2.451,1.703 3.645,2.023 -0.014,-0.352 -0.016,-0.683 -0.018,-1.014z"/>
     </g>
     <path fill='white' fill-rule='nonzero' d="M453.986 35.23c0.727,2.684 -2.318,5.507 -4.755,3.185 -1.977,-1.884 -4.956,-5.039 -7.386,-6.538 -2.498,-1.541 0.832,-4.226 4.755,-3.184 3.662,0.973 6.66,3.853 7.386,6.537z"/>
     <g>
      <path fill='#3F7BFF' fill-rule='nonzero' d="M454.193 120.771c-1.264,0.46 1.047,2.578 1.047,2.578 0,0 25.066,-8.475 40.362,-17.2 0.129,-1.825 -1.217,-2.794 -1.217,-2.794 0,0 -18.61,9.568 -40.192,17.416z"/>
      <path fill='#3f7bff' fill-rule='nonzero' fill-opacity='0.5' d="M454.193 120.771c-1.264,0.46 1.047,2.578 1.047,2.578 0,0 25.066,-8.475 40.362,-17.2 0.129,-1.825 -1.217,-2.794 -1.217,-2.794 0,0 -18.61,9.568 -40.192,17.416z"/>
     </g>
     <g>
      <g>
       <path fill='#3F7BFF' fill-rule='nonzero' d="M472.673 47.662c4.949,2.466 9.608,5.078 14.259,7.968 2.317,1.439 4.622,2.918 6.895,4.512 2.289,1.563 4.547,3.212 6.815,5.066l0.85 0.688 1.06 0.943c0.754,0.656 1.306,1.259 1.86,1.862 0.581,0.621 1.061,1.22 1.533,1.816 0.488,0.599 0.954,1.196 1.373,1.784 1.775,2.351 3.221,4.742 4.639,7.115 2.758,4.809 5.146,9.612 7.116,14.78 0.879,2.305 -0.302,4.876 -2.639,5.744 -1.754,0.651 -3.663,0.156 -4.876,-1.109l-0.089 -0.095c-3.605,-3.767 -7.063,-7.741 -10.542,-11.432 -3.403,-3.681 -7.018,-7.459 -9.934,-9.102 -4.073,-2.506 -8.609,-4.996 -13.116,-7.447l-13.568 -7.431 -0.034 -0.019c-4.333,-2.372 -5.896,-7.761 -3.491,-12.035 2.344,-4.169 7.612,-5.73 11.889,-3.608z"/>
       <path fill='#3f7bff' fill-rule='nonzero' fill-opacity='0.8' d="M472.673 47.662c4.949,2.466 9.608,5.078 14.259,7.968 2.317,1.439 4.622,2.918 6.895,4.512 2.289,1.563 4.547,3.212 6.815,5.066l0.85 0.688 1.06 0.943c0.754,0.656 1.306,1.259 1.86,1.862 0.581,0.621 1.061,1.22 1.533,1.816 0.488,0.599 0.954,1.196 1.373,1.784 1.775,2.351 3.221,4.742 4.639,7.115 2.758,4.809 5.146,9.612 7.116,14.78 0.879,2.305 -0.302,4.876 -2.639,5.744 -1.754,0.651 -3.663,0.156 -4.876,-1.109l-0.089 -0.095c-3.605,-3.767 -7.063,-7.741 -10.542,-11.432 -3.403,-3.681 -7.018,-7.459 -9.934,-9.102 -4.073,-2.506 -8.609,-4.996 -13.116,-7.447l-13.568 -7.431 -0.034 -0.019c-4.333,-2.372 -5.896,-7.761 -3.491,-12.035 2.344,-4.169 7.612,-5.73 11.889,-3.608z"/>
      </g>
      <g>
       <path fill='#3F7BFF' fill-rule='nonzero' d="M523.403 102.853l-1.523 -3.763c0,0 -0.851,-4.823 -3.889,-6.165l-9.044 1.403 0.316 0.78c-0.004,-0.002 -0.008,-0.003 -0.012,-0.003 0.836,1.827 0.203,5.001 -0.611,7.596 -0.813,2.595 0.568,2.909 1.705,2.41 0.658,-0.288 1.273,-1.434 1.967,-2.665 0.331,0.643 0.695,1.267 1.127,1.85l2.212 2.995c0.955,1.291 2.764,1.627 4.129,0.764l2.43 -1.534c1.238,-0.782 1.739,-2.322 1.193,-3.668z"/>
       <path fill='#3f7bff' fill-rule='nonzero' fill-opacity='0.8' d="M523.403 102.853l-1.523 -3.763c0,0 -0.851,-4.823 -3.889,-6.165l-9.044 1.403 0.316 0.78c-0.004,-0.002 -0.008,-0.003 -0.012,-0.003 0.836,1.827 0.203,5.001 -0.611,7.596 -0.813,2.595 0.568,2.909 1.705,2.41 0.658,-0.288 1.273,-1.434 1.967,-2.665 0.331,0.643 0.695,1.267 1.127,1.85l2.212 2.995c0.955,1.291 2.764,1.627 4.129,0.764l2.43 -1.534c1.238,-0.782 1.739,-2.322 1.193,-3.668z"/>
      </g>
     </g>
     <g>
      <g>
       <path fill='#3f7bff' fill-rule='nonzero' fill-opacity='0.3' d="M465.094 68.011l-2.187 0.176 -13.43 32.014c0.79,0.053 1.516,-0.013 2.187,-0.176 0,0 17.512,-6.439 22.812,-8.799 -3.568,-7.292 -9.382,-23.215 -9.382,-23.215z"/>
       <path fill='white' fill-rule='nonzero' d="M440.569 76.412c0.748,5.765 5.13,18.019 8.908,23.789 6.559,-2.231 17.513,-6.44 22.812,-8.799 -3.568,-7.293 -7.327,-17.341 -9.382,-23.215 -5.649,0.372 -17.962,4.948 -22.338,8.225z"/>
      </g>
      <path fill='#3f7bff' fill-rule='nonzero' fill-opacity='0.3' d="M453.905 83.335c-0.733,2.415 -3.312,3.787 -5.761,3.065 -2.448,-0.723 -3.838,-3.267 -3.106,-5.683 0.733,-2.416 3.312,-3.788 5.76,-3.065 2.449,0.723 3.839,3.267 3.107,5.683z"/>
      <path fill='#3f7bff' fill-rule='nonzero' fill-opacity='0.6' d="M457.338 77.236c-0.24,0.791 -1.085,1.241 -1.888,1.004 -0.802,-0.237 -1.258,-1.071 -1.018,-1.863 0.24,-0.791 1.085,-1.241 1.888,-1.004 0.802,0.237 1.258,1.071 1.018,1.863z"/>
      <path fill='#3f7bff' fill-rule='nonzero' fill-opacity='0.6' d="M461.342 75.697c-0.24,0.792 -1.085,1.242 -1.888,1.005 -0.802,-0.237 -1.258,-1.071 -1.018,-1.862 0.24,-0.792 1.086,-1.242 1.888,-1.005 0.802,0.237 1.258,1.071 1.018,1.862z"/>
      <polygon fill='#3f7bff' fill-rule='nonzero' fill-opacity='0.5' points="466.987,89.484 450.396,95.954 449.392,92.735 465.983,86.265 "/>
     </g>
    </g>
   </g>
   <g>
    <path fill='black' fill-rule='nonzero' fill-opacity='0.2' d="M375.419 335.529c-0.359,13.348 -1.365,23.598 -3.015,30.715 -2.117,9.1 -5.401,15.755 -9.869,19.969 -4.45,4.214 -9.724,6.32 -15.807,6.32 -9.222,0 -16.274,-4.957 -21.119,-14.888 -0.789,-1.612 -1.507,-3.453 -2.17,-5.506 -10.246,8.692 -19.791,18.181 -28.565,28.378l-9.528 11.082c5.15,5.152 10.999,9.383 17.53,12.729 11.178,5.7 25.838,8.568 43.996,8.568 3.193,0 6.279,-0.088 9.276,-0.265 10.981,-16.04 20.078,-33.283 27.094,-51.375l26.645 -68.547 -34.468 22.82z"/>
    <g>
     <g>
      <path fill='#263138' fill-rule='nonzero' d="M135.222 428.98c10.042,9.909 31.402,30.984 31.402,30.984l87.938 -81.731c-30.261,-11.35 -89.25,21.059 -119.34,50.747z"/>
      <path fill='#263138' fill-rule='nonzero' d="M244.733 537.03c-10.043,-9.909 -31.403,-30.984 -31.403,-30.984l82.837 -86.764c11.503,29.857 -21.344,88.059 -51.434,117.748z"/>
      <g>
       <path fill='#3F7BFF' fill-rule='nonzero' d="M364.907 341.776l34.255 -65.163 -66.045 33.798c-21.219,10.858 -40.81,24.566 -58.214,40.731l-112.585 104.574 55.317 54.579 105.989 -111.082c16.384,-17.172 30.278,-36.502 41.283,-57.437z"/>
       <path fill='#3f7bff' fill-rule='nonzero' fill-opacity='0.6' d="M364.907 341.776l34.255 -65.163 -66.045 33.798c-21.219,10.858 -40.81,24.566 -58.214,40.731l-112.585 104.574 55.317 54.579 105.989 -111.082c16.384,-17.172 30.278,-36.502 41.283,-57.437z"/>
      </g>
      <path fill='white' fill-rule='nonzero' d="M310.935 395.956c-9.039,8.918 -23.693,8.918 -32.732,0 -9.038,-8.918 -9.038,-23.376 0,-32.294 9.039,-8.918 23.693,-8.918 32.732,0 9.038,8.918 9.038,23.376 0,32.294z"/>
      <path fill='#3F7BFF' fill-rule='nonzero' d="M305.08 390.181c-5.805,5.727 -15.217,5.727 -21.022,0 -5.806,-5.728 -5.806,-15.015 0,-20.743 5.805,-5.728 15.217,-5.728 21.022,0 5.806,5.728 5.806,15.015 0,20.743z"/>
      <polygon fill='#3f7bff' fill-rule='nonzero' fill-opacity='0.3' points="236.342,490.69 182.188,437.26 226.527,396.076 278.082,446.943 "/>
      <g>
       <path fill='#3F7BFF' fill-rule='nonzero' d="M147.479 477.944c-40.559,3.255 -53.996,28.866 -58.577,62.915 -2.336,17.365 -3.373,34.934 -18.151,45.099 -4.101,2.821 -2.065,9.111 2.933,8.957 54.435,-1.677 79.826,-27.978 83.015,-38.991 -1.097,6.962 -2.699,12.455 -4.471,16.773 -1.823,4.438 3.117,8.546 7.229,6.004 15.282,-9.446 34.448,-26.829 35.721,-55.017 -11.299,-15.668 -47.699,-45.74 -47.699,-45.74z"/>
       <path fill='white' fill-rule='nonzero' fill-opacity='0.2' d="M147.479 477.944c-40.559,3.255 -53.996,28.866 -58.577,62.915 -2.336,17.365 -3.373,34.934 -18.151,45.099 -4.101,2.821 -2.065,9.111 2.933,8.957 54.435,-1.677 79.826,-27.978 83.015,-38.991 -1.097,6.962 -2.699,12.455 -4.471,16.773 -1.823,4.438 3.117,8.546 7.229,6.004 15.282,-9.446 34.448,-26.829 35.721,-55.017 -11.299,-15.668 -47.699,-45.74 -47.699,-45.74z"/>
      </g>
      <polygon fill='#3F7BFF' fill-rule='nonzero' points="201.408,535.805 136.463,471.727 171.061,464.342 208.893,501.669 "/>
     </g>
    </g>
   </g>
  </g>
 </g>
</svg>
